name D:\school\WTK\thesis\model\3dpredictsim\Results\Batchsim_tmt_linear_v2\Pog_s1_tmt_bCst_d05_k2000_ig24.mot
datacolumns 128
datarows 4
range 1.56974631 1.60114124
endheader
time	pelvis_tilt	pelvis_list	pelvis_rotation	pelvis_tx	pelvis_ty	pelvis_tz	hip_flexion_l	hip_adduction_l	hip_rotation_l	hip_flexion_r	hip_adduction_r	hip_rotation_r	knee_angle_l	knee_angle_r	ankle_angle_l	ankle_angle_r	subtalar_angle_l	subtalar_angle_r	tmt_angle_l	tmt_angle_r	mtp_angle_l	mtp_angle_r	lumbar_extension	lumbar_bending	lumbar_rotation	arm_flex_l	arm_add_l	arm_rot_l	arm_flex_r	arm_add_r	arm_rot_r	elbow_flex_l	elbow_flex_r	pro_sup_l	pro_sup_r	glut_med1_l/activation	glut_med2_l/activation	glut_med3_l/activation	glut_min1_l/activation	glut_min2_l/activation	glut_min3_l/activation	semimem_l/activation	semiten_l/activation	bifemlh_l/activation	bifemsh_l/activation	sar_l/activation	add_long_l/activation	add_brev_l/activation	add_mag1_l/activation	add_mag2_l/activation	add_mag3_l/activation	tfl_l/activation	pect_l/activation	grac_l/activation	glut_max1_l/activation	glut_max2_l/activation	glut_max3_l/activation	iliacus_l/activation	psoas_l/activation	quad_fem_l/activation	gem_l/activation	peri_l/activation	rect_fem_l/activation	vas_med_l/activation	vas_int_l/activation	vas_lat_l/activation	med_gas_l/activation	lat_gas_l/activation	soleus_l/activation	tib_post_l/activation	flex_dig_l/activation	flex_hal_l/activation	tib_ant_l/activation	per_brev_l/activation	per_long_l/activation	per_tert_l/activation	ext_dig_l/activation	ext_hal_l/activation	ercspn_l/activation	intobl_l/activation	extobl_l/activation	glut_med1_r/activation	glut_med2_r/activation	glut_med3_r/activation	glut_min1_r/activation	glut_min2_r/activation	glut_min3_r/activation	semimem_r/activation	semiten_r/activation	bifemlh_r/activation	bifemsh_r/activation	sar_r/activation	add_long_r/activation	add_brev_r/activation	add_mag1_r/activation	add_mag2_r/activation	add_mag3_r/activation	tfl_r/activation	pect_r/activation	grac_r/activation	glut_max1_r/activation	glut_max2_r/activation	glut_max3_r/activation	iliacus_r/activation	psoas_r/activation	quad_fem_r/activation	gem_r/activation	peri_r/activation	rect_fem_r/activation	vas_med_r/activation	vas_int_r/activation	vas_lat_r/activation	med_gas_r/activation	lat_gas_r/activation	soleus_r/activation	tib_post_r/activation	flex_dig_r/activation	flex_hal_r/activation	tib_ant_r/activation	per_brev_r/activation	per_long_r/activation	per_tert_r/activation	ext_dig_r/activation	ext_hal_r/activation	ercspn_r/activation	intobl_r/activation	extobl_r/activation	
          1.56974631	         -2.12143063	         -0.91251829	         -4.37883695	          1.96218289	          0.87443323	          0.00175227	         25.76932334	         -0.25272645	         -2.56524298	        -18.49176544	          1.55806063	          5.16263798	         -7.60591652	         -3.83097110	          7.02731124	         -7.43554050	          3.75594306	          6.11340129	          0.01624465	          0.54957749	         -0.12482117	         25.62706470	         -0.18492542	          3.19716305	          1.48786790	         -8.47407104	        -13.45473046	         11.22144020	          3.12532927	        -13.45574662	          9.60810015	         18.18031249	         24.23457471	         86.51662706	         86.51662706	          0.05000014	          0.06896288	          0.06931968	          0.05000014	          0.05000024	          0.06884236	          0.06896299	          0.06896277	          0.11769205	          0.05872114	          0.05000032	          0.05000015	          0.05000051	          0.11122688	          0.12642197	          0.13250467	          0.05000341	          0.05000056	          0.07427179	          0.05872139	          0.06507258	          0.13274503	          0.05000003	          0.05000005	          0.05872091	          0.05872095	          0.05000070	          0.05000006	          0.05000028	          0.05000028	          0.05000024	          0.05000002	          0.05000006	          0.05000000	          0.05854807	          0.05872100	          0.05872093	          0.42876480	          0.27632928	          0.18652288	          0.16229803	          0.44383592	          0.24085096	          0.05488598	          0.16075463	          0.15121495	          0.31347456	          0.09511726	          0.08099094	          0.28172152	          0.16489174	          0.09511758	          0.05000094	          0.05000015	          0.05000013	          0.05000020	          0.09727699	          0.05000004	          0.05000004	          0.05000009	          0.05000043	          0.05000054	          0.23616652	          0.05000016	          0.05000015	          0.05868879	          0.05026826	          0.05000165	          0.38084784	          0.66781420	          0.05000016	          0.05872017	          0.08098986	          0.29291455	          0.05003067	          0.05012980	          0.05000687	          0.19838687	          0.29174011	          0.20151194	          0.22175508	          0.20190812	          0.29059963	          0.05000003	          0.07452668	          0.12971527	          0.05000018	          0.05000006	          0.05000019	          0.05000000	          0.05000001	          0.05000001	
          1.58021129	         -2.11297766	         -0.98281179	         -4.54222974	          1.97809946	          0.87321278	          0.00164757	         25.31355094	         -0.12821970	         -2.35055309	        -18.44700514	          1.44669928	          4.93685157	         -7.41379003	         -5.65014329	          6.64504487	         -8.03570618	          3.33675303	          7.03341818	          0.01838561	          0.52520264	         -0.09898635	         26.60440360	         -0.00559021	          3.05125949	          1.54013395	         -9.50497765	        -13.45096375	         11.10781807	          2.97723804	        -13.46990953	          9.83976142	         18.18889382	         24.97739452	         86.51662706	         86.51662706	          0.05872084	          0.05872121	          0.24441912	          0.05872149	          0.05872102	          0.05872051	          0.05872111	          0.05872093	          0.10211898	          0.05000042	          0.05000066	          0.09511753	          0.15511157	          0.10286643	          0.15917436	          0.15687403	          0.05000009	          0.06914020	          0.06324189	          0.05000054	          0.05540847	          0.17412458	          0.05872086	          0.05000068	          0.05000011	          0.05000026	          0.10281975	          0.05001461	          0.18202065	          0.18562444	          0.15759968	          0.05000006	          0.05000009	          0.05259185	          0.05000000	          0.05000020	          0.05000017	          0.55656580	          0.27459152	          0.15882187	          0.43987312	          0.53213466	          0.33765094	          0.05000014	          0.13688046	          0.12875755	          0.26691970	          0.08099111	          0.06896274	          0.23988226	          0.14040318	          0.08099140	          0.05000033	          0.05000009	          0.05000008	          0.05000015	          0.08283035	          0.11796279	          0.05049693	          0.05000359	          0.05000190	          0.05000031	          0.20109274	          0.08997004	          0.05000864	          0.05000091	          0.05000055	          0.05000068	          0.32428702	          0.60981983	          0.05842228	          0.05000039	          0.06896185	          0.24941290	          0.10533222	          0.10703469	          0.08140593	          0.16892383	          0.24841293	          0.19855616	          0.20349142	          0.17192492	          0.24744389	          0.05000001	          0.06371030	          0.13440893	          0.05000011	          0.05000003	          0.05000009	          0.05000003	          0.05000006	          0.05000044	
          1.59067626	         -2.09743641	         -1.03644378	         -4.68116356	          1.99432748	          0.87195911	          0.00153525	         24.78096581	         -0.00745903	         -2.10860123	        -18.27918875	          1.32098201	          4.70319314	         -7.82078944	         -7.70768593	          5.97128057	         -8.66992392	          2.92760203	          7.96596541	          0.01260914	          0.48275440	         -0.05225112	         27.35252680	          0.19745656	          2.87194233	          1.58695238	        -10.55927729	        -13.45055861	         10.99540265	          2.75620691	        -13.48832409	         10.04460612	         18.21515189	         25.70674479	         86.51662706	         86.51662706	          0.05000005	          0.05000043	          0.20811972	          0.05000060	          0.05000021	          0.05000018	          0.05000027	          0.05000016	          0.08695298	          0.05000002	          0.05000014	          0.08099137	          0.13207550	          0.21857825	          0.18593609	          0.15872715	          0.05872141	          0.05887218	          0.05385008	          0.10034266	          0.10616120	          0.14826490	          0.05000009	          0.05000036	          0.17205862	          0.05090096	          0.08754970	          0.06896271	          0.19808802	          0.22507567	          0.15866351	          0.05000009	          0.05000027	          0.05000001	          0.05872106	          0.06896242	          0.06896240	          0.47390847	          0.32913759	          0.19326556	          0.37454628	          0.45310575	          0.28750536	          0.05000000	          0.11655191	          0.10963536	          0.22727865	          0.06896288	          0.05872089	          0.20425668	          0.11955149	          0.06896314	          0.05000327	          0.05000024	          0.05000044	          0.05000007	          0.07052908	          0.17369337	          0.16981294	          0.05876010	          0.05823977	          0.05872162	          0.17122787	          0.07660855	          0.05000085	          0.05294883	          0.05871952	          0.05872057	          0.27612616	          0.53728197	          0.05872083	          0.05872097	          0.05872073	          0.21237182	          0.15131734	          0.15407106	          0.15397735	          0.14383642	          0.21152036	          0.16906802	          0.17327039	          0.14639208	          0.21069541	          0.05000002	          0.05424853	          0.14379560	          0.05000007	          0.05000003	          0.05000014	          0.05000004	          0.06846213	          0.06896276	
          1.60114124	         -2.07662405	         -1.07269066	         -4.79498428	          2.01074689	          0.87064297	          0.00142815	         24.13778624	          0.07731640	         -1.85935029	        -18.01074056	          1.18415843	          4.46388055	         -8.56361266	         -9.94925947	          5.41461082	         -9.29699955	          2.50247582	          8.87800132	         -0.00469750	          0.42072651	         -0.18429991	         27.69343743	          0.41279453	          2.66207498	          1.62452822	        -11.60832539	        -13.45849449	         10.92366863	          2.48050656	        -13.50865382	         10.21731621	         18.23178246	         26.42540928	         86.51662706	         86.51662706	          0.21972368	          0.22675786	          0.36254766	          0.27141887	          0.22051823	          0.20536113	          0.07113021	          0.05000061	          0.08784262	          0.08099092	          0.05872231	          0.06896311	          0.11246057	          0.18611655	          0.15832220	          0.14835529	          0.05000067	          0.05012916	          0.05000021	          0.16048881	          0.14705279	          0.12624594	          0.05600736	          0.05000054	          0.14650570	          0.05872743	          0.19940480	          0.05872085	          0.16866936	          0.19164900	          0.13509992	          0.05000013	          0.05000041	          0.05000005	          0.05000023	          0.05872089	          0.05872083	          0.55340755	          0.34421669	          0.17568011	          0.40503926	          0.56011557	          0.35353919	          0.05000003	          0.09924243	          0.09335307	          0.25605424	          0.05872100	          0.05000008	          0.21320177	          0.10179656	          0.05872123	          0.05000144	          0.05000015	          0.05000011	          0.05000024	          0.06005535	          0.16727798	          0.16459370	          0.05003377	          0.05000129	          0.05000090	          0.14579834	          0.08977281	          0.05000066	          0.05000048	          0.05000037	          0.05000045	          0.23511782	          0.50026304	          0.05000007	          0.05000024	          0.05000006	          0.18083182	          0.12884478	          0.13118953	          0.13110974	          0.12247483	          0.18010682	          0.14395920	          0.14753750	          0.12465105	          0.17940447	          0.05000002	          0.12349438	          0.13646235	          0.05000021	          0.10811928	          0.05000018	          0.05051166	          0.05829461	          0.05872090	
